<?xml version="1.0" encoding="utf-8"?>
<!-- Generator: Adobe Illustrator 16.0.4, SVG Export Plug-In . SVG Version: 6.00 Build 0)  -->
<!DOCTYPE svg PUBLIC "-//W3C//DTD SVG 1.1//EN" "http://www.w3.org/Graphics/SVG/1.1/DTD/svg11.dtd">
<svg version="1.1" id="Layer_1" xmlns="http://www.w3.org/2000/svg" xmlns:xlink="http://www.w3.org/1999/xlink" x="0px" y="0px"
	 width="32px" height="32px" viewBox="0 0 32 32" enable-background="new 0 0 32 32" xml:space="preserve">
<path fill="#00AACD" d="M5,0h22c2.762,0,5,2.239,5,5v22c0,2.762-2.238,5-5,5H5c-2.761,0-5-2.238-5-5V5C0,2.239,2.239,0,5,0z"/>
<g>
	<path fill="#FFFFFF" d="M24.546,5.876c-1.011-1.013-2.268-1.542-3.678-1.54h-0.571c-1.409-0.002-2.646,0.528-3.653,1.54
		c-0.244,0.244-0.459,0.501-0.645,0.77c-0.186-0.269-0.4-0.526-0.644-0.77c-1.009-1.012-2.244-1.542-3.655-1.54h-0.57
		c-1.411-0.002-2.667,0.526-3.678,1.54C6.439,6.885,5.91,8.12,5.912,9.531v3.706c-0.002,1.434,0.527,2.691,1.541,3.703
		c1.01,1.013,2.265,1.517,3.668,1.517h0.581c1.74-0.001,3.332-0.896,4.299-2.308c0.969,1.412,2.559,2.307,4.297,2.308h0.571
		c1.407,0.002,2.665-0.501,3.678-1.517c1.015-1.012,1.543-2.27,1.541-3.703V9.531C26.089,8.12,25.56,6.886,24.546,5.876z
		 M17.87,7.08c0.676-0.673,1.46-1,2.427-1.001h0.571c0.992,0.002,1.8,0.331,2.475,1.001c0.672,0.674,1,1.483,1.002,2.452v0.602
		h-7.474V9.531c0-0.018-0.001-0.036-0.001-0.054C16.886,8.533,17.212,7.741,17.87,7.08z M7.653,9.531
		c0.002-0.969,0.332-1.777,1.002-2.452c0.675-0.67,1.482-0.999,2.476-1.001h0.57c0.968,0.002,1.751,0.329,2.428,1.001
		c0.658,0.661,0.984,1.452,0.999,2.396c0,0.019-0.001,0.037-0.001,0.056v0.602H7.653V9.531z M15.787,13.792
		c-0.378-0.013-0.724,0.215-0.834,0.584c-0.471,1.427-1.753,2.336-3.251,2.337l-0.57,0.001c-0.993-0.003-1.801-0.331-2.476-1.002
		c-0.67-0.674-0.999-1.481-1.002-2.475v-1.386h8.373c0,0,0,0,0.002,0h8.318v1.387c-0.002,0.994-0.332,1.801-1.002,2.475
		c-0.676,0.671-1.482,1-2.476,1.001l-0.571,0.001c-1.497-0.002-2.779-0.911-3.251-2.337c-0.11-0.371-0.456-0.598-0.835-0.585
		L15.787,13.792L15.787,13.792z"/>
	<g>
		<path fill="#FFFFFF" d="M22.226,21.607l-5.929,5.93c-0.077,0.076-0.19,0.127-0.292,0.127c-0.103,0-0.216-0.051-0.293-0.127
			l-5.93-5.93c-0.077-0.076-0.127-0.191-0.127-0.293c0-0.103,0.051-0.217,0.127-0.293l0.636-0.637
			c0.076-0.076,0.178-0.127,0.292-0.127c0.102,0,0.216,0.051,0.293,0.127l5.001,5.001l5-5.001c0.077-0.076,0.19-0.127,0.292-0.127
			c0.104,0,0.217,0.051,0.294,0.127l0.636,0.637c0.076,0.076,0.127,0.19,0.127,0.293C22.353,21.416,22.304,21.531,22.226,21.607z"/>
	</g>
</g>
</svg>
