<?xml version="1.0" encoding="utf-8"?>
<!-- Generator: Adobe Illustrator 16.0.4, SVG Export Plug-In . SVG Version: 6.00 Build 0)  -->
<!DOCTYPE svg PUBLIC "-//W3C//DTD SVG 1.1//EN" "http://www.w3.org/Graphics/SVG/1.1/DTD/svg11.dtd">
<svg version="1.1" id="Layer_1" xmlns="http://www.w3.org/2000/svg" xmlns:xlink="http://www.w3.org/1999/xlink" x="0px" y="0px"
	 width="128px" height="128px" viewBox="0 0 128 128" enable-background="new 0 0 128 128" xml:space="preserve">
<path fill="#00AACD" d="M20,0h88c11.046,0,20,8.954,20,20v88c0,11.046-8.954,20-20,20H20c-11.046,0-20-8.954-20-20V20
	C0,8.954,8.954,0,20,0z"/>
<g>
	<path fill="#FFFFFF" d="M98.188,23.504c-4.043-4.054-9.07-6.169-14.713-6.16h-2.281c-5.646-0.009-10.58,2.111-14.617,6.16
		c-0.979,0.975-1.834,2.003-2.574,3.079c-0.742-1.076-1.601-2.104-2.577-3.08c-4.037-4.049-8.975-6.168-14.619-6.16l-2.281,0.001
		c-5.644-0.008-10.669,2.105-14.714,6.159c-4.049,4.037-6.169,8.975-6.16,14.621v14.824c-0.009,5.734,2.106,10.765,6.16,14.809
		c4.041,4.051,9.062,6.064,14.675,6.064h2.32c6.962-0.002,13.327-3.582,17.196-9.227c3.875,5.648,10.234,9.225,17.191,9.229
		l2.281-0.002c5.631,0.01,10.664-2.004,14.713-6.064c4.057-4.044,6.168-9.074,6.162-14.809V38.125
		C104.357,32.479,102.236,27.542,98.188,23.504z M71.482,28.318c2.707-2.691,5.84-3.999,9.711-4.009h2.281
		c3.975,0.01,7.201,1.324,9.897,4.009c2.688,2.695,4.002,5.93,4.009,9.806v2.406L67.49,40.533v-2.408
		c0-0.073-0.004-0.144-0.004-0.216C67.544,34.13,68.85,30.963,71.482,28.318z M30.616,38.125c0.009-3.875,1.323-7.109,4.008-9.808
		c2.699-2.683,5.928-3.997,9.899-4.006l2.281-0.001c3.873,0.01,7.004,1.316,9.711,4.009c2.632,2.644,3.938,5.808,3.996,9.58
		c0,0.075-0.004,0.149-0.004,0.226v2.406H30.616V38.125z M63.149,55.167c-1.513-0.051-2.896,0.859-3.339,2.338
		c-1.882,5.71-7.014,9.344-13.006,9.35l-2.281,0.002c-3.973-0.01-7.2-1.321-9.899-4.008c-2.685-2.697-3.998-5.927-4.008-9.9v-5.545
		h33.485c0.004,0,0.006-0.002,0.008-0.002h33.271l0.001,5.547c-0.011,3.974-1.323,7.203-4.01,9.9
		c-2.696,2.687-5.925,3.998-9.897,4.006l-2.281,0.002c-5.988-0.008-11.125-3.642-13.006-9.348c-0.442-1.482-1.824-2.393-3.34-2.342
		H63.149L63.149,55.167z"/>
	<g>
		<path fill="#FFFFFF" d="M88.909,86.43l-23.718,23.719c-0.308,0.306-0.767,0.509-1.17,0.509c-0.41,0-0.867-0.203-1.172-0.509
			L39.131,86.43c-0.306-0.307-0.51-0.764-0.51-1.17c0-0.408,0.204-0.865,0.51-1.17l2.544-2.547c0.306-0.305,0.713-0.51,1.171-0.51
			c0.408,0,0.866,0.205,1.171,0.51l20.005,20.004l20.002-20.004c0.307-0.305,0.764-0.51,1.17-0.51c0.408,0,0.865,0.205,1.173,0.51
			l2.544,2.547c0.305,0.305,0.508,0.762,0.508,1.17C89.417,85.666,89.214,86.123,88.909,86.43z"/>
	</g>
</g>
</svg>
