<?xml version="1.0" encoding="utf-8"?>
<!-- Generator: Adobe Illustrator 16.0.4, SVG Export Plug-In . SVG Version: 6.00 Build 0)  -->
<!DOCTYPE svg PUBLIC "-//W3C//DTD SVG 1.1//EN" "http://www.w3.org/Graphics/SVG/1.1/DTD/svg11.dtd">
<svg version="1.1"
	 id="Layer_1" xmlns:rdf="http://www.w3.org/1999/02/22-rdf-syntax-ns#" xmlns:cc="http://creativecommons.org/ns#" xmlns:dc="http://purl.org/dc/elements/1.1/"
	 xmlns="http://www.w3.org/2000/svg" xmlns:xlink="http://www.w3.org/1999/xlink" x="0px" y="0px" width="62px" height="34px"
	 viewBox="0 0 62 34" enable-background="new 0 0 62 34" xml:space="preserve">
<g>
	<path fill="#FFFFFF" d="M40.768,5.33c-1.165-1.168-2.614-1.778-4.239-1.775H35.87c-1.626-0.002-3.049,0.608-4.212,1.775
		c-0.281,0.281-0.529,0.577-0.743,0.888c-0.214-0.311-0.46-0.607-0.741-0.888c-1.164-1.167-2.587-1.778-4.213-1.775h-0.658
		c-1.626-0.002-3.075,0.607-4.24,1.775c-1.167,1.163-1.778,2.585-1.776,4.213v4.272c-0.002,1.652,0.607,3.101,1.776,4.268
		c1.164,1.167,2.611,1.748,4.228,1.748h0.669c2.006-0.001,3.84-1.033,4.954-2.66c1.117,1.628,2.951,2.659,4.955,2.66h0.658
		c1.622,0.002,3.072-0.577,4.239-1.748c1.168-1.167,1.778-2.615,1.776-4.268V9.543C42.546,7.916,41.935,6.494,40.768,5.33z
		 M33.072,6.717c0.779-0.775,1.683-1.152,2.798-1.154h0.658c1.145,0.002,2.074,0.381,2.853,1.154
		c0.774,0.777,1.152,1.709,1.155,2.826v0.693h-8.615V9.543c0-0.021-0.001-0.042-0.001-0.062C31.937,8.393,32.313,7.479,33.072,6.717
		z M21.295,9.543c0.002-1.117,0.382-2.049,1.155-2.827c0.778-0.773,1.709-1.151,2.854-1.154h0.658
		c1.116,0.002,2.018,0.379,2.798,1.154c0.758,0.762,1.134,1.673,1.151,2.761c0,0.022-0.001,0.043-0.001,0.065v0.693h-8.615V9.543z
		 M30.67,14.455c-0.435-0.015-0.834,0.248-0.961,0.674c-0.543,1.645-2.021,2.693-3.748,2.693l-0.658,0.002
		c-1.145-0.004-2.076-0.382-2.854-1.155c-0.773-0.778-1.152-1.708-1.155-2.854v-1.597h9.649c0.002,0,0.003-0.001,0.003-0.001h9.589
		v1.599c-0.003,1.145-0.382,2.076-1.155,2.854c-0.778,0.773-1.708,1.151-2.853,1.153l-0.658,0.002
		c-1.727-0.002-3.205-1.051-3.748-2.695c-0.127-0.426-0.525-0.689-0.962-0.674H30.67z"/>
	<g>
		<path fill="#FFFFFF" d="M38.093,23.464l-6.834,6.835c-0.089,0.088-0.221,0.146-0.337,0.146c-0.119,0-0.25-0.059-0.337-0.146
			l-6.836-6.835c-0.088-0.088-0.146-0.221-0.146-0.337c0-0.118,0.058-0.25,0.146-0.338l0.733-0.733
			c0.088-0.088,0.206-0.146,0.337-0.146c0.118,0,0.249,0.059,0.338,0.146l5.765,5.765l5.764-5.765
			c0.089-0.088,0.22-0.146,0.337-0.146c0.118,0,0.25,0.059,0.339,0.146l0.731,0.733c0.089,0.088,0.146,0.22,0.146,0.338
			C38.239,23.243,38.182,23.376,38.093,23.464z"/>
	</g>
</g>
</svg>
