<?xml version="1.0" encoding="utf-8"?>
<!-- Generator: Adobe Illustrator 16.0.4, SVG Export Plug-In . SVG Version: 6.00 Build 0)  -->
<!DOCTYPE svg PUBLIC "-//W3C//DTD SVG 1.1//EN" "http://www.w3.org/Graphics/SVG/1.1/DTD/svg11.dtd">
<svg version="1.1"
	 id="Layer_1" xmlns:dc="http://purl.org/dc/elements/1.1/" xmlns:rdf="http://www.w3.org/1999/02/22-rdf-syntax-ns#" xmlns:cc="http://creativecommons.org/ns#"
	 xmlns="http://www.w3.org/2000/svg" xmlns:xlink="http://www.w3.org/1999/xlink" x="0px" y="0px" width="252px" height="120px"
	 viewBox="0 0 252 120" enable-background="new 0 0 252 120" xml:space="preserve">
<g>
	<g>
		<path fill="#010101" d="M24.221,56.155l-0.274,0.394l0.27-0.397c-1.324-0.897-3.494-1.797-6.556-2.702
			c-2.425-0.69-4.058-1.292-4.82-1.745c-1.079-0.69-1.543-1.49-1.556-2.572c0.005-2.316,1.968-3.925,5.045-3.951h1.195
			c2.653,0.011,4.319,0.793,5.263,2.355c0.316,0.546,0.823,0.938,1.428,0.933c0.353,0,0.693-0.123,1.024-0.32
			c0.553-0.299,0.974-0.8,0.968-1.421c-0.001-0.375-0.139-0.733-0.359-1.087c-1.624-2.744-4.488-4.122-8.324-4.11H16.33
			c-2.484,0-4.644,0.751-6.188,2.09c-1.547,1.335-2.459,3.265-2.456,5.509c-0.011,2.285,1.048,4.174,3.006,5.431
			c1.17,0.794,3.139,1.591,5.954,2.398c2.764,0.786,4.635,1.538,5.531,2.171c1.225,0.874,1.827,2.025,1.836,3.639
			c-0.006,1.166-0.573,2.143-1.89,3.094c-1.276,0.943-2.662,1.402-4.101,1.404h-1.195c-2.667,0.006-5.26-1.474-6.347-3.529
			c-0.28-0.59-0.802-1.043-1.451-1.037c-0.335,0.002-0.662,0.109-0.986,0.289c-0.604,0.286-1.03,0.816-1.02,1.438
			c0,0.329,0.104,0.646,0.27,0.958c1.783,3.353,5.436,5.48,9.534,5.48h1.195c0.002,0,0.004,0,0.005,0
			c2.346,0,4.549-0.79,6.463-2.292c2.07-1.595,3.178-3.553,3.171-5.805C27.673,59.999,26.478,57.717,24.221,56.155z"/>
		<g>
			<path fill="#010101" d="M52.146,44.66c-2.118-2.125-4.709-3.183-7.708-3.177h-1.095c-3.305-0.005-6.212,1.301-8.382,3.834
				c-2.536,2.578-2.646,6.476-2.656,7.401c0,0.128,0.004,0.2,0.004,0.207v28.913c-0.002,0.523,0.133,1.001,0.465,1.344
				c0.33,0.34,0.801,0.48,1.299,0.48c0.004,0,0.007,0,0.011,0c0.521,0.002,1.004-0.133,1.347-0.477
				c0.344-0.344,0.479-0.826,0.478-1.348V67.962c2.033,1.94,4.542,2.912,7.434,2.906h1.095c2.999,0.006,5.59-1.052,7.708-3.178
				c2.123-2.114,3.184-4.657,3.178-7.607v-7.766C55.329,49.367,54.271,46.777,52.146,44.66z M43.344,45.032h1.095
				c2.03,0.004,3.719,0.69,5.131,2.143c1.468,1.476,2.149,3.113,2.155,5.142v7.766c-0.005,2.027-0.687,3.665-2.15,5.137
				c-1.412,1.406-3.107,2.094-5.136,2.098h-1.095c-2.028-0.004-3.671-0.688-5.142-2.104c-1.457-1.465-2.138-3.103-2.143-5.13v-7.766
				c0.005-2.028,0.686-3.666,2.149-5.136C39.679,45.719,41.316,45.038,43.344,45.032z"/>
		</g>
		<path fill="#010101" d="M74.333,42.174c-0.333-0.353-0.812-0.495-1.314-0.492h-1.194c-3.203-0.006-5.945,1.257-8.105,3.673
			c-0.242,0.223-2.625,2.526-2.83,6.773l0,0.014v16.703c-0.002,0.502,0.138,0.972,0.47,1.305c0.331,0.33,0.795,0.47,1.294,0.47
			c0.003,0,0.007,0,0.011,0c0.542,0.002,1.029-0.13,1.382-0.461c0.353-0.333,0.496-0.812,0.492-1.313V52.566
			c0.004-1.976,0.688-3.622,2.104-5.092c1.46-1.453,3.152-2.139,5.181-2.143l1.194-0.001c0.503,0.003,0.972-0.137,1.305-0.47
			c0.333-0.333,0.472-0.801,0.47-1.304C74.795,43.012,74.665,42.526,74.333,42.174z"/>
		<g>
			<path fill="#010101" d="M147.078,58.345V31.209c0.002-0.521-0.134-1.004-0.476-1.348c-0.345-0.343-0.827-0.479-1.349-0.477
				c-0.502-0.002-0.976,0.138-1.309,0.482c-0.333,0.342-0.468,0.819-0.466,1.342v13.246c-2.009-1.976-4.558-2.98-7.484-2.974
				l-1.096,0c-3.046-0.006-5.639,1.051-7.758,3.178c-2.077,2.122-3.131,4.709-3.126,7.707v7.816
				c-0.006,2.943,0.998,5.537,3.126,7.658c2.115,2.122,4.703,3.127,7.731,3.127c0.009,0,0.018,0,0.026,0h1.095
				c3.344,0.006,6.197-1.255,8.317-3.786c2.519-2.551,2.79-6.264,2.799-7.949C147.11,58.75,147.086,58.43,147.078,58.345z
				 M135.995,67.419h-1.096c-2.037-0.006-3.725-0.646-5.186-2.1c-1.457-1.467-2.094-3.1-2.1-5.137v-7.816
				c0.006-2.028,0.689-3.668,2.1-5.086c1.465-1.458,3.157-2.144,5.186-2.149h1.096c2.081,0.005,3.768,0.691,5.181,2.144
				c1.415,1.423,2.1,3.063,2.104,5.092v7.816c-0.005,2.027-0.688,3.671-2.104,5.141C139.768,66.726,138.076,67.414,135.995,67.419z"
				/>
		</g>
		<g>
			<path fill="#01B3D0" d="M115.785,45.041c-2.119-2.124-4.752-3.231-7.708-3.227h-1.195c-2.957-0.005-5.542,1.106-7.657,3.227
				c-0.512,0.51-0.961,1.049-1.349,1.613c-0.388-0.564-0.837-1.103-1.349-1.613c-2.115-2.122-4.701-3.231-7.658-3.227l-1.195,0
				c-2.956-0.004-5.588,1.103-7.708,3.227c-2.121,2.115-3.231,4.701-3.227,7.658v7.767c-0.004,3.004,1.104,5.638,3.227,7.757
				c2.117,2.123,4.746,3.177,7.687,3.177h1.216c3.646-0.001,6.98-1.877,9.007-4.833c2.03,2.959,5.362,4.832,9.006,4.834l1.195-0.001
				c2.949,0.005,5.586-1.05,7.708-3.178c2.124-2.118,3.231-4.753,3.227-7.757v-7.766C119.017,49.742,117.906,47.156,115.785,45.041z
				 M101.796,47.562c1.417-1.41,3.058-2.094,5.086-2.1h1.194c2.082,0.005,3.773,0.694,5.186,2.1
				c1.407,1.413,2.096,3.106,2.099,5.136v1.261l-15.658,0.001v-1.262c0-0.038-0.003-0.075-0.003-0.113
				C99.732,50.607,100.416,48.948,101.796,47.562z M80.389,52.699c0.004-2.029,0.693-3.724,2.099-5.137
				c1.414-1.406,3.105-2.094,5.186-2.099l1.195,0c2.029,0.005,3.669,0.689,5.086,2.1c1.379,1.385,2.063,3.042,2.094,5.019
				c0,0.04-0.003,0.078-0.003,0.118l0,1.261H80.388L80.389,52.699L80.389,52.699z M97.431,61.627
				c-0.793-0.026-1.518,0.45-1.75,1.225c-0.985,2.991-3.674,4.894-6.812,4.897l-1.195,0.001c-2.081-0.005-3.772-0.693-5.186-2.1
				c-1.405-1.413-2.095-3.104-2.099-5.186V57.56h17.54c0.002,0,0.003,0,0.004,0h17.429l0,2.905c-0.006,2.081-0.694,3.772-2.1,5.186
				c-1.413,1.406-3.104,2.095-5.186,2.099l-1.195,0.001c-3.137-0.005-5.827-1.907-6.812-4.896c-0.232-0.776-0.957-1.254-1.75-1.227
				H97.431z"/>
			<g>
				<path fill="#01B3D0" d="M110.924,77.946L98.499,90.372c-0.159,0.159-0.4,0.266-0.613,0.266c-0.214,0-0.453-0.106-0.613-0.266
					L84.848,77.946c-0.16-0.16-0.267-0.4-0.267-0.613s0.107-0.453,0.267-0.612l1.333-1.333c0.16-0.161,0.373-0.268,0.613-0.268
					c0.214,0,0.453,0.106,0.614,0.268l10.478,10.478l10.479-10.478c0.159-0.161,0.4-0.268,0.613-0.268s0.453,0.106,0.613,0.268
					l1.333,1.333c0.16,0.159,0.266,0.399,0.266,0.612C111.19,77.547,111.084,77.786,110.924,77.946z"/>
			</g>
		</g>
		<g>
			<path fill="#010101" d="M153.525,59.209c0.008,1.686,0.279,5.398,2.799,7.949c2.119,2.532,4.973,3.793,8.316,3.786h1.096
				c0.009,0,0.017,0,0.026,0c3.027,0,5.616-1.004,7.73-3.127c2.129-2.121,3.133-4.715,3.128-7.658v-7.815
				c0.004-2.998-1.05-5.585-3.128-7.708c-2.117-2.125-4.712-3.183-7.757-3.177l-1.096,0c-2.928-0.006-5.477,0.999-7.485,2.975
				V31.186c0.002-0.522-0.133-1-0.465-1.342c-0.334-0.344-0.808-0.484-1.31-0.481c-0.521-0.002-1.004,0.134-1.349,0.476
				c-0.341,0.344-0.478,0.827-0.476,1.348v27.136C153.55,58.407,153.526,58.726,153.525,59.209z M159.46,65.302
				c-1.417-1.472-2.101-3.115-2.105-5.143v-7.815c0.005-2.028,0.689-3.669,2.105-5.092c1.412-1.453,3.099-2.138,5.181-2.143h1.096
				c2.028,0.005,3.72,0.69,5.186,2.149c1.409,1.417,2.094,3.058,2.099,5.086v7.815c-0.005,2.037-0.642,3.671-2.099,5.137
				c-1.462,1.453-3.148,2.094-5.186,2.1h-1.096C162.56,67.392,160.867,66.702,159.46,65.302z"/>
		</g>
		<path fill="#010101" d="M200.889,44.685c-2.142-2.141-4.733-3.227-7.705-3.227h-1.098c-2.972,0-5.564,1.085-7.706,3.227
			c-2.141,2.141-3.227,4.717-3.227,7.656v7.779c0,2.972,1.086,5.564,3.227,7.705c2.108,2.108,4.701,3.177,7.706,3.177h1.098
			c3.004,0,5.598-1.068,7.705-3.177c2.141-2.141,3.227-4.733,3.227-7.705v-7.779C204.115,49.401,203.029,46.826,200.889,44.685z
			 M193.184,67.438h-1.098c-2.086,0-3.791-0.689-5.209-2.108c-1.419-1.419-2.109-3.123-2.109-5.21v-7.778
			c0-2.024,0.71-3.76,2.109-5.16c1.453-1.452,3.156-2.159,5.209-2.159h1.098c2.018,0,3.706,0.707,5.159,2.159
			c1.452,1.453,2.158,3.141,2.158,5.16v7.778c0,2.053-0.706,3.757-2.158,5.21C196.943,66.729,195.206,67.438,193.184,67.438z"/>
		<path fill="#010101" d="M221.329,56.471l8.204-11.742c0.314-0.439,0.433-0.866,0.353-1.269c-0.087-0.438-0.393-0.815-0.943-1.159
			c-0.373-0.224-0.738-0.337-1.085-0.337c-0.568,0-1.069,0.29-1.496,0.874l-7.207,10.454l-7.264-10.465
			c-0.522-0.713-1.116-0.863-1.522-0.863c-0.357,0-0.729,0.114-1.108,0.342c-0.543,0.339-0.85,0.717-0.937,1.154
			c-0.08,0.402,0.039,0.83,0.35,1.265l8.207,11.746l-8.213,11.803c-0.404,0.607-0.409,1.25-0.011,1.857
			c0.335,0.588,0.937,0.926,1.653,0.926c0.646,0,1.191-0.273,1.588-0.803l7.256-10.455l7.219,10.469
			c0.388,0.516,0.933,0.788,1.578,0.788c0.688,0,1.24-0.306,1.643-0.91c0.415-0.624,0.395-1.295-0.062-1.889L221.329,56.471z"/>
	</g>
	<g>
		<path fill="#1D1D1B" d="M244.977,35.979c0,3.589-2.911,6.434-6.399,6.434c-3.455,0-6.4-2.845-6.4-6.434s2.98-6.4,6.4-6.4
			C242.098,29.579,244.977,32.423,244.977,35.979z M232.938,35.979c0,3.183,2.556,5.688,5.639,5.688c3.114,0,5.637-2.54,5.637-5.688
			c0-3.031-2.455-5.638-5.637-5.638C235.494,30.34,232.938,32.88,232.938,35.979z M236.24,32.491h2.438c0.509,0,2.336,0,2.336,1.727
			c0,0.204,0,1.287-1.285,1.659c0.711,0.17,0.946,0.475,1.049,1.321c0.102,0.847,0.169,1.49,0.406,2.167h-0.981
			c-0.137-0.439-0.203-0.71-0.34-1.794c-0.102-1.05-0.372-1.321-1.489-1.321h-1.185v3.115h-0.949L236.24,32.491L236.24,32.491z
			 M237.188,35.437h1.489c0.474,0,1.354,0,1.354-1.05c0-1.083-0.846-1.083-1.354-1.083h-1.489V35.437z"/>
	</g>
</g>
</svg>
